<?xml version="1.0" encoding="UTF-8" standalone="no"?>
<!DOCTYPE svg PUBLIC "-//W3C//DTD SVG 1.1//EN" "http://www.w3.org/Graphics/SVG/1.1/DTD/svg11.dtd">
<svg xmlns="http://www.w3.org/2000/svg" version="1.1" viewBox="0.00 0.00 512.00 512.00">
<path fill="#000000" d="
  M 512.00 253.34
  L 512.00 347.55
  C 509.78 358.56 502.74 361.03 492.25 361.01
  Q 481.70 360.98 471.29 361.01
  A 0.57 0.56 -83.6 0 0 470.74 361.45
  C 456.62 422.00 373.16 421.76 358.16 361.33
  A 0.43 0.43 0.0 0 0 357.74 361.00
  L 206.29 361.00
  A 0.60 0.60 0.0 0 0 205.70 361.48
  C 198.66 393.89 165.79 413.86 133.79 404.66
  C 113.08 398.70 98.63 383.08 93.30 361.56
  Q 93.16 361.03 92.62 361.02
  Q 80.21 360.95 67.79 361.00
  C 53.69 361.06 47.98 356.12 48.00 341.75
  Q 48.02 321.66 47.99 301.53
  Q 47.99 301.02 47.47 301.02
  Q 33.88 300.97 20.34 301.00
  C 9.53 301.03 2.16 298.87 0.00 287.43
  L 0.00 284.46
  C 2.05 273.59 9.10 270.99 19.39 270.99
  Q 83.30 271.01 147.22 270.99
  Q 152.99 270.98 155.96 269.69
  C 167.99 264.43 167.97 247.44 155.93 242.36
  Q 152.69 240.99 146.35 241.00
  Q 82.65 241.01 18.92 240.99
  C 8.86 240.99 1.94 238.05 0.00 227.41
  L 0.00 224.45
  C 2.10 213.61 9.08 210.99 19.38 210.99
  Q 61.10 211.01 102.82 210.99
  Q 108.30 210.99 111.35 209.69
  C 125.01 203.86 123.41 182.10 106.93 182.05
  Q 68.22 181.95 29.50 182.01
  C 13.96 182.04 9.34 158.64 24.41 153.07
  C 30.07 150.98 40.46 152.05 47.40 151.98
  Q 47.97 151.97 47.97 151.40
  Q 48.06 137.22 48.00 123.15
  C 47.95 110.13 52.95 104.01 66.36 104.00
  Q 200.43 104.00 334.47 104.00
  A 0.53 0.53 0.0 0 1 335.00 104.53
  Q 335.01 146.75 334.99 189.17
  C 334.99 202.08 339.20 208.98 352.83 208.99
  Q 404.37 209.02 455.91 208.99
  Q 467.35 208.99 473.49 210.35
  C 495.09 215.13 510.82 230.05 512.00 253.34
  Z
  M 176.94 349.49
  A 27.44 27.44 0.0 0 0 149.50 322.05
  A 27.44 27.44 0.0 0 0 122.06 349.49
  A 27.44 27.44 0.0 0 0 149.50 376.93
  A 27.44 27.44 0.0 0 0 176.94 349.49
  Z
  M 441.94 349.49
  A 27.44 27.44 0.0 0 0 414.50 322.05
  A 27.44 27.44 0.0 0 0 387.06 349.49
  A 27.44 27.44 0.0 0 0 414.50 376.93
  A 27.44 27.44 0.0 0 0 441.94 349.49
  Z"
/>
<path fill="#000000" d="
  M 412.09 130.91
  C 426.67 144.42 437.22 161.30 447.14 178.31
  A 0.46 0.46 0.0 0 1 446.75 179.00
  L 365.50 179.00
  A 0.50 0.50 0.0 0 1 365.00 178.50
  L 365.00 107.53
  A 0.38 0.38 0.0 0 1 365.47 107.16
  C 382.99 111.40 398.79 118.59 412.09 130.91
  Z"
/>
</svg>
