<?xml version="1.0" encoding="UTF-8" standalone="no"?>
<!DOCTYPE svg PUBLIC "-//W3C//DTD SVG 1.1//EN" "http://www.w3.org/Graphics/SVG/1.1/DTD/svg11.dtd">
<svg xmlns="http://www.w3.org/2000/svg" version="1.1" viewBox="0.00 0.00 512.00 512.00">
<path fill="#000000" d="
  M 295.72 101.27
  Q 295.70 101.49 295.47 101.46
  Q 256.12 95.65 216.77 101.44
  Q 216.29 101.51 216.24 101.02
  C 214.48 82.48 221.76 65.81 238.43 57.70
  C 255.54 49.39 275.90 53.95 287.50 69.10
  Q 297.85 82.61 295.72 101.27
  Z"
/>
<path fill="#000000" d="
  M 21.60 348.07
  C 30.16 214.80 147.60 116.88 279.76 129.74
  C 394.63 140.92 482.37 234.32 490.47 348.18
  A 0.30 0.30 0.0 0 1 490.17 348.50
  L 22.00 348.50
  A 0.40 0.40 0.0 0 1 21.60 348.07
  Z"
/>
<path fill="#000000" d="
  M 512.00 392.32
  L 512.00 396.56
  C 509.29 432.01 481.90 458.48 446.25 458.49
  Q 259.16 458.51 72.07 458.49
  Q 58.72 458.49 52.17 457.17
  C 23.06 451.31 2.12 426.73 0.00 396.91
  L 0.00 391.95
  C 1.88 382.13 8.40 378.50 17.81 378.50
  Q 254.63 378.50 491.46 378.50
  C 502.51 378.50 509.97 380.54 512.00 392.32
  Z"
/>
</svg>
