<?xml version="1.0" encoding="utf-8"?>
<!-- Generator: Adobe Illustrator 28.1.0, SVG Export Plug-In . SVG Version: 6.00 Build 0)  -->
<svg version="1.1" id="Capa_1" xmlns="http://www.w3.org/2000/svg" xmlns:xlink="http://www.w3.org/1999/xlink" x="0px" y="0px"
	 viewBox="0 0 512 512" style="enable-background:new 0 0 512 512;" xml:space="preserve">
<style type="text/css">
	.st0{fill:#FFFFFF;}
</style>
<path class="st0" d="M253.5,0h5c38.4,1.6,70.5,15.7,96.3,42.5c24.9,25.8,37.8,59.4,37.9,95.5c0.1,24.1,0.1,48.3,0.1,72.4
	c0,0.3,0.1,0.4,0.4,0.4c7.9,0,15.8,0,23.7,0.1c14.7,0.2,25.4,11.5,25.4,25.9c0,80.5,0.1,161,0.1,241.5c0,7.7-0.5,13.1-1.5,16.3
	c-3.1,10-10.7,15.8-22.5,17.4h-325c-11.8-1.7-19.2-7.4-22.4-17.3c-1-3.2-1.5-8.7-1.5-16.6c0-80.5,0-160.9,0.1-241.4
	c0-14.5,10.8-25.7,25.4-25.8c7.9-0.1,15.7-0.1,23.6-0.2c0.4,0,0.5-0.2,0.5-0.5c0-21.2,0-42.5,0-63.7c0-9.4,0.2-16,0.5-20
	c2.3-29.2,12.6-54.9,31.1-76.9C176.9,18.2,211.2,1.7,253.5,0z M170.2,210.8h171.6c0.4,0,0.7-0.3,0.7-0.7l0,0v-72.1
	c0-48.3-38.7-87.4-86.4-87.4H256c-47.7,0-86.4,39.1-86.4,87.4v72.1C169.6,210.5,169.9,210.8,170.2,210.8L170.2,210.8z"/>
</svg>
