<?xml version="1.0" encoding="UTF-8"?>
<svg id="Capa_2" data-name="Capa 2" xmlns="http://www.w3.org/2000/svg" viewBox="0 0 1019.88 256.22">
  <defs>
    <style>
      .cls-1 {
        fill: #fff;
        stroke-width: 0px;
      }
    </style>
  </defs>
  <path class="cls-1" d="m239.36,149.8c.45-.15.69-.64.54-1.09-.04-.11-.09-.2-.17-.29-8.84-10.23-18.86-19.1-30.05-26.61-6.56-4.4-12.51-7.31-17.85-8.74-11.69-3.14-23.34-1.86-34.93,3.83-1.13.56-2.02,1.96-2.66,4.19-5.2,18.23-7.89,36.84-8.06,55.81,0,.24-.21.42-.44.42h-.06c-7.03-1.12-14.08-1.28-21.14-.48-.28.03-.42-.09-.43-.37-1.41-41.32-14.77-78.15-40.08-110.49-2.33-2.97-4.7-5.48-7.13-7.53-.75-.64-1.87-.55-2.51.2-.19.22-.32.48-.38.76-.98,4.3-1.58,8.02-1.79,11.16-2.58,38.25.47,77.98,15.39,113.7.14.35.04.6-.29.75-22.74,10.33-35.21,31.38-37.11,55.82-.03.38-.19.45-.48.2C18.61,214.88.26,177.83,0,137.04-.5,58.02,66.03-5.01,145.05.31c64.12,4.32,116.81,53.04,125.57,116.81,6.94,50.5-14.41,99.95-55.99,129.61-.31.21-.46.13-.47-.24-.53-26.23-11.92-45.85-34.17-58.84-.29-.17-.36-.4-.22-.7,5.37-11.03,9.42-22.53,12.15-34.5.09-.39.33-.55.72-.49,2.38.36,4.73.65,7.19.56,9.71-.35,19.43-.65,29.16-.9,3.65-.09,7.1-.7,10.37-1.81h0Z"/>
  <rect class="cls-1" x="790.88" y="85.97" width="34.16" height="33.62" rx="15.33" ry="15.33" transform="translate(685.48 907.99) rotate(-88.6)"/>
  <path class="cls-1" d="m343.56,107.97c-.05,28.07-.02,56.42.08,85.04.02,7.07,2.23,13.65,6.63,19.74.88,1.21.95,2.55.2,4.04-.16.32-.42.48-.78.48l-19.92-.05c-.33,0-.63-.18-.78-.46-.75-1.34-.76-2.52-.04-3.53,5.21-7.28,6.99-12.89,7.01-22.36.05-24.42.07-48.84.06-73.26-.01-10.57-.78-17.52-6.59-25.3-1.11-1.49-1.25-2.9-.41-4.23.18-.29.5-.47.84-.47,6.66-.08,13.29-.1,19.89-.07,10.21.06,15.06,2.17,18.85,11.42,11.41,27.91,22.79,55.84,34.12,83.78.19.46.38.46.57,0,11.37-27.22,22.74-54.58,34.11-82.08,4.11-9.95,7.85-13.11,18.4-13.12,6.41,0,12.82.02,19.22.07.33,0,.65.12.89.35,1.72,1.6,1.12,3.43-.38,5.05-4.43,4.8-5.98,9.19-5.99,16.13-.06,26.79-.05,53.57.03,80.35.03,10.16,1.62,15.86,7,23.72.79,1.16.76,2.36-.1,3.6-.18.27-.43.4-.76.4-12.34.11-24.66.09-36.96-.05-1.16-.01-1.94-.25-2.35-.72-.44-.51-.56-1.2-.37-2.05.11-.48.42-1.06.93-1.75,5.24-7.13,6.5-13.41,6.5-22.91,0-27.73,0-55.42.01-83.07,0-.12-.1-.21-.22-.2-.08,0-.15.05-.18.12l-45.15,108.3c-.13.31-.33.57-.6.77-6.32,4.58-9.18.25-11.45-5.31-13.9-34.06-27.79-68.23-41.66-102.5-.43-1.07-.65-1.03-.65.13h0Z"/>
  <path class="cls-1" d="m761.25,127.28c-.13.03-.21.16-.17.29.02.07.07.13.13.16,9.19,4.1,15.59,10.41,19.2,18.93,6.09,14.35,2.73,31.16-8.98,41.67-14.11,12.67-30.83,12.13-48.44,12.43-1.84.03-3.46.39-4.87,1.07-.68.33-.97,1.16-.64,1.84.15.3.4.54.71.67,1.67.69,3.52,1.03,5.55,1.03,14.76.01,29.38-1.09,43.99,1.68,4.1.78,8.03,2.54,11.79,5.28,3.73,2.73,5.58,5.59,6.08,10.34,1.8,17.05-13.78,27.43-28.62,30.83-16.9,3.87-36.4,3.98-52.83-2.15-8.65-3.23-17.59-10.63-11.43-20.8,4.84-7.99,12.92-3.61,16.87,2.37,7.39,11.19,18.1,16.44,32.15,15.75,6.11-.3,11.28-2.24,15.53-5.83,3.78-3.2,6.08-10.37-.33-12.77-2.82-1.05-6.47-1.55-10.96-1.5-12.7.16-26.35,1.27-38.3-.82-8.85-1.55-13.77-6.31-14.78-14.26-1.52-11.99,7.37-16.36,17.22-18.71.53-.13.56-.33.09-.6-14.24-8.08-21.14-22.28-18.64-38.39,3.29-21.13,23.5-32.56,43.82-32.83,9.78-.13,18.35-5.41,24.53-12.78,2.25-2.68,6.08-6.76,10.4-7.06,2.16-.15,4.19.36,6.09,1.53,2.22,1.37,3.74,3.27,4.55,5.68,3.98,11.88-12.27,15.18-19.71,16.95h0Zm-24.03,65.96c10.69.02,19.37-14.02,19.4-31.35h0c.03-17.33-8.61-31.4-19.3-31.41h0c-10.69-.02-19.37,14.02-19.4,31.35h0c-.03,17.33,8.61,31.4,19.3,31.41h0Z"/>
  <path class="cls-1" d="m816.24,122.83c2.23-.36,6.39,1.31,6.39,3.93,0,20.83,0,41.67.03,62.51.02,10.05,1.44,16,6.85,23.69,1,1.42,1.07,2.58.21,3.48-.53.55-1.42.83-2.68.83-12.07,0-24.11.05-36.13.16-.29,0-.57-.13-.75-.35-1.08-1.31-1.18-2.6-.29-3.86,6.13-8.73,6.89-14.18,6.88-25.69-.02-11.11-.03-22.23-.03-33.34,0-10.36-1.47-15.37-7.02-23.36-.81-1.16-.68-2.29.39-3.38.21-.22.47-.35.78-.4,8.47-1.42,16.93-2.83,25.37-4.22h0Z"/>
  <path class="cls-1" d="m556,219.01c-7.78-1.12-12.13-6.54-13.76-13.87-.04-.2-.23-.32-.42-.28-.1.02-.19.08-.24.16-15.81,24.65-60.95,16.09-60.2-16.12.31-13.46,10.1-20.41,22-23.49,12.85-3.33,22.72-3.41,37.37-3.52.34,0,.52-.18.54-.52.47-7.89-.81-15.32-3.86-22.29-1.39-3.18-3.17-5.48-5.33-6.89-9.67-6.35-18.62,4.38-23.35,12.07-9.24,15.02-31.62-7.14-6.54-16.82,14.77-5.69,29.58-6.08,44.43-1.16,2.11.7,3.93,2.56,6.16,3.55,1.06.47,1.87.95,2.42,1.46,8.62,7.81,12.42,19.99,12.37,31.73-.05,12.41-.05,24.82,0,37.24,0,1.36.54,2.36,1.63,3,.34.19.75.2,1.09.03,1.19-.6,2.03-1.48,2.51-2.63.36-.88,1.37-1.29,2.25-.93.54.22.93.7,1.03,1.28,1.63,9.31-1.73,15.18-10.1,17.62-2.78.81-7.46.74-10,.38h0Zm-40-13.99c3.01,2.54,6.26,3.57,9.75,3.09,15.95-2.21,16.53-26.99,15.6-38.42-.03-.31-.2-.47-.51-.49-6.88-.47-13.57.31-20.08,2.32-15.14,4.69-15.78,22.63-6.07,32.67.42.43.81.4,1.31.83h0Z"/>
  <path class="cls-1" d="m614.15,138.29c10.95-12.65,28.49-18.39,44.79-13.65,6.1,1.77,10.85,5.24,14.26,10.41,5.72,8.67,5.39,17.55,5.32,30.17-.03,5.26-.04,10.52-.05,15.78-.01,12.23-.53,17.98,3.54,26.77,1.02,2.19,3.39,4.31,3.95,7.51.17.95-.47,1.86-1.42,2.02-.1.02-.2.03-.31.03l-37.77-.2c-.29,0-.54-.1-.74-.31-1.01-1.07-1.11-2.19-.28-3.37,5.71-8.17,6.99-13.38,7.05-24.03.06-11.13.1-22.27.13-33.4.03-10.87-7.12-20.64-18.88-19.58-12.61,1.15-20.31,13.02-20.31,25.33,0,8.91.03,17.83.08,26.75.07,10.64,1.35,16.52,7.01,24.7.91,1.32.84,2.55-.2,3.7-.23.25-.52.38-.86.37l-37.85-.14c-.24,0-.44-.09-.59-.28-1.01-1.25-1.12-2.46-.32-3.63,4.91-7.15,6.81-12.24,6.83-21.34.03-13.71.05-27.43.06-41.14,0-6.79-2.13-13.09-6.42-18.91-1.27-1.74-1.83-4.45,1.01-4.94,8.11-1.41,16.21-2.72,24.32-3.95,2.93-.44,4.98.26,6.15,2.09,1.71,2.7,1,9.49,1.09,13.09.01.41.15.46.41.15h0Z"/>
  <path class="cls-1" d="m903.43,145.31c-4.96-7.64-13.83-18.14-24.12-14.06-22.83,9.04-21.95,64.87-3.38,77.82,8.07,5.63,16.8,1.39,22.46-6,3.29-4.3,7.32-12.58,14.34-10.68,1.67.45,3.36,1.41,5.07,2.87,6.58,5.61,1.64,13.77-5.09,17.24-18.52,9.54-45.03,9.59-61.68-4.38-8.77-7.36-13.9-17.24-15.37-29.63-2.48-20.8,5.17-41.54,24.9-50.64,16.93-7.8,38.98-6.13,55.04,3.05,4.62,2.63,6.53,9,3.61,13.64-3.49,5.54-12.02,6.57-15.78.77h0Z"/>
  <path class="cls-1" d="m945.83,148.95c-9.52,2.13-15.91-9.82-8.14-16.57,2.67-2.31,5.72-4.09,9.15-5.34,15.68-5.7,35.71-6.52,50.05,3.34,5.17,3.56,8.8,8.35,10.88,14.36,2.15,6.22,3.22,12.64,3.23,19.27.01,12.17.08,24.33.21,36.5,0,.37.03.7.09.99.25,1.17,1.4,1.91,2.56,1.66.59-.13,1.1-.49,1.41-1.01.6-1.03,1.41-1.86,2.42-2.49.28-.18.62-.2.92-.07,1.71.75,1.18,2.23,1.22,3.6.29,9.65-4.4,14.93-14.05,15.86-11.15,1.07-17.89-3.61-20.23-14.04-.03-.16-.19-.27-.35-.24-.08.02-.15.07-.2.14-5.46,8.41-13.22,13.09-23.27,14.02-19.49,1.81-38.33-9.71-36.72-31.24,1.06-14.14,12.99-20.63,25.34-23.22,10.71-2.25,21.81-3.15,33.31-2.68.72.03,1.09-.32,1.1-1.05.1-8.07-1.17-23.12-8.96-28.31-10.17-6.79-19.48,4.58-24.15,12.74-.8,1.39-4.01,3.37-5.82,3.78h0Zm17.11,58.14c11.59,3.97,19.22-6.9,20.88-17.08,1.1-6.75,1.41-13.53.94-20.34-.02-.3-.18-.46-.48-.48-8.08-.62-21.02.5-27.39,6.15-9.15,8.11-5.8,27.69,6.05,31.75Z"/>
  <ellipse class="cls-1" cx="102.03" cy="240.39" rx="11.98" ry="9.01" transform="translate(-138.53 342) rotate(-89.9)"/>
  <ellipse class="cls-1" cx="162.87" cy="240.37" rx="11.99" ry="9" transform="translate(-78.07 402.4) rotate(-89.8)"/>
</svg>