<?xml version="1.0" encoding="UTF-8"?>
<svg id="svg5" xmlns="http://www.w3.org/2000/svg" viewBox="0 0 121.04 116.36">
  <defs>
    <style>
      .cls-1 {
        fill: #0a1e2f;
        stroke-width: 0px;
      }
    </style>
  </defs>
  <g id="g1489">
    <g id="path858">
      <path class="cls-1" d="m51.65,96.45c-26.04,0-48.04-19.54-49.55-44.52C.54,26.15,21.29,3.79,48.35,2.07c.33-.02.66-.02.99,0,.32-.05.65-.08.98-.09,27.06-.69,49.92,19.71,50.93,45.46,1.01,25.79-20.2,47.75-47.29,48.95-.77.03-1.55.05-2.31.05Zm-1.62-78.98c-.23.03-.46.06-.69.07-18.56,1.17-32.8,16.18-31.76,33.44,1.05,17.32,17.07,30.75,35.7,29.92,18.59-.82,33.16-15.56,32.48-32.85-.68-17.33-16.39-31.02-35.04-30.57-.23,0-.47,0-.69-.01Z"/>
    </g>
    <g id="path1149">
      <path class="cls-1" d="m111.29,114.39c-1.94,0-3.89-.73-5.39-2.19l-28.99-28.22c-3.06-2.98-3.13-7.88-.15-10.94,2.98-3.06,7.88-3.13,10.94-.15l28.99,28.22c3.06,2.98,3.13,7.88.15,10.94-1.52,1.56-3.53,2.34-5.54,2.34Z"/>
    </g>
  </g>
</svg>