<?xml version="1.0" encoding="UTF-8" standalone="no"?>
<!DOCTYPE svg PUBLIC "-//W3C//DTD SVG 1.1//EN" "http://www.w3.org/Graphics/SVG/1.1/DTD/svg11.dtd">
<svg xmlns="http://www.w3.org/2000/svg" version="1.1" viewBox="0.00 0.00 512.00 512.00">
<path fill="#000000" d="
  M 254.57 0.00
  L 257.56 0.00
  Q 262.01 0.77 266.69 3.56
  Q 362.02 60.22 457.30 116.95
  C 465.53 121.86 466.48 127.46 466.50 137.24
  Q 466.60 187.83 466.42 204.18
  C 464.93 336.47 387.60 460.21 263.74 510.27
  Q 260.99 511.38 256.94 512.00
  L 254.95 512.00
  C 252.91 511.63 251.04 511.25 249.07 510.48
  C 127.92 462.66 52.66 344.24 45.98 216.43
  C 44.60 189.87 45.44 162.72 45.51 136.10
  C 45.53 128.15 46.67 121.78 53.32 117.82
  Q 150.56 59.94 247.83 2.09
  Q 250.31 0.62 254.57 0.00
  Z
  M 220.85 287.94
  Q 209.33 276.52 197.88 265.03
  Q 194.06 261.20 191.73 259.97
  C 177.77 252.57 161.52 267.11 168.03 281.70
  Q 169.39 284.76 174.80 290.17
  Q 190.31 305.68 205.79 321.18
  Q 211.40 326.79 214.94 328.28
  C 223.35 331.82 229.59 328.29 235.84 322.04
  Q 286.98 270.90 338.11 219.75
  C 343.52 214.34 346.53 209.38 344.94 202.07
  C 342.12 189.03 325.62 183.96 316.17 193.43
  Q 268.98 240.75 221.63 287.94
  Q 221.24 288.33 220.85 287.94
  Z"
/>
</svg>
