<?xml version="1.0" encoding="UTF-8"?>
<svg id="Capa_1" data-name="Capa 1" xmlns="http://www.w3.org/2000/svg" viewBox="0 0 468 411.41">
  <defs>
    <style>
      .cls-1 {
        fill: #fff;
        stroke-width: 0px;
      }
    </style>
  </defs>
  <path class="cls-1" d="m468,67.05v3.19c-17.86,62.83-35.79,125.66-53.8,188.51-1.54,5.38-2.91,8.87-4.11,10.46-2.55,3.36-6.25,5.05-11.1,5.05-79.43-.01-158.85-.02-238.28,0-.29,0-.51.13-.65.4-2.45,4.62-3.92,7.6-4.42,8.95-2.44,6.56,1.44,14.71,8.22,17.22,1.51.56,3.73.84,6.65.84,75.15.01,150.3.02,225.45,0,4.09,0,7.11.42,9.08,1.28,10.82,4.72,10.7,20.17-.06,24.89-1.91.83-4.74,1.25-8.49,1.25-14.63,0-28.93,0-42.89,0-5.2,0-5.22.29-.05.88,4.2.48,9.03,2.68,14.47,6.6,28.31,20.43,21.29,63.85-12.52,73.25-30.31,8.43-58.44-19.22-50.67-49.77,4.06-15.94,17.74-28.8,34.54-30.43.05-.01.09-.07.07-.12,0-.03-.03-.06-.06-.07-1.19-.21-2.42-.32-3.68-.32-40.37-.02-80.47-.03-120.31-.03-4.92,0-4.94.29-.05.87,6.75.8,15.46,6.33,20.44,11.4,24.28,24.7,9.21,66.07-25.08,69.82-7.07.77-13.82-.27-20.26-3.13-26.94-11.95-33.71-46.88-12.35-67.48,6.11-5.9,13.71-9.58,22.8-11.03.04-.01.07-.06.05-.1,0-.02-.03-.04-.05-.05-.98-.2-1.98-.3-2.99-.3-8,0-16.01,0-24.01,0-6.83,0-11.96-.43-15.41-1.29-22.08-5.48-35.65-28.71-29.46-50.81,1.56-5.55,5-11.74,7.85-17.35.15-.3.17-.61.08-.93L71.02,27.91c-.08-.26-.32-.45-.59-.45-16.95-.04-33.83-.04-50.62,0-5.86.02-9.85-.45-11.97-1.41-4.08-1.85-6.69-5.38-7.84-10.61v-3.49C1.16,6.75,3.8,3.22,7.9,1.37,9.95.45,13.59-.01,18.8,0,39.58.03,60.36.03,81.12,0c4.63,0,8.21,1.65,10.72,4.98,1.24,1.63,2.59,5.02,4.05,10.16,3.72,13.1,7.46,26.18,11.22,39.26.09.3.29.46.6.46,113.49.02,226.97.02,340.44,0,5.95,0,9.97.46,12.05,1.4,4.12,1.85,6.72,5.44,7.79,10.8Z"/>
</svg>