<?xml version="1.0" encoding="utf-8"?>
<!-- Generator: Adobe Illustrator 28.0.0, SVG Export Plug-In . SVG Version: 6.00 Build 0)  -->
<svg version="1.1" id="Capa_1" xmlns="http://www.w3.org/2000/svg" xmlns:xlink="http://www.w3.org/1999/xlink" x="0px" y="0px"
	 viewBox="0 0 414 341" style="enable-background:new 0 0 414 341;" xml:space="preserve">
<style type="text/css">
	.st0{fill:#000020;}
</style>
<path class="st0" d="M200.7,44.1c26.3-1,52.7,7.5,73.2,24.2c2.6,2.1,4.4,5.3,1.7,8c-49.3,49.3-98.7,98.7-148,148
	c-3,3-6.1,1.4-8.3-1.5C91.6,187.9,87,140,108.6,100.9C127.3,67.2,162.1,45.6,200.7,44.1L200.7,44.1z M240.5,96.8
	c-7.1-16.1-16.1-30.1-27.1-42c-0.6-0.7-1.6-0.8-3.1-0.4c-0.2,0.1-0.4,0.2-0.4,0.5v48.7c0,0.3,0.2,0.5,0.5,0.5l24.1-1.2
	c0.3,0,0.5-0.1,0.7-0.3l5.1-5C240.6,97.3,240.7,97,240.5,96.8z M170,96c-0.8,1.8-1.5,3.5-2.3,5.1c-0.1,0.2,0,0.4,0.2,0.5
	c0,0,0.1,0,0.1,0c10.4,1.4,20.9,2.1,31.4,2.2c0.4,0,0.6-0.2,0.6-0.6V54.8c0-0.2-0.1-0.4-0.4-0.4c-1.5-0.4-2.6-0.2-3.3,0.5
	C185.3,67.1,176.5,80.8,170,96z M157.6,99.7c6.2-15.7,13.3-29.1,23.5-42.1c0.4-0.6,0.3-0.8-0.4-0.6c-22.4,5.8-40.7,17.8-54.9,36
	c-0.3,0.4-0.2,0.6,0.2,0.7c10.1,2.8,20.4,4.9,30.7,6.5C157.2,100.2,157.5,100,157.6,99.7L157.6,99.7z M235.3,58.8
	c-2.1-0.7-4.1-1.3-5.7-1.8c-1-0.3-1.1-0.1-0.5,0.7c7.6,9.7,13.9,20.1,18.9,31.4c0.2,0.4,0.4,0.4,0.7,0.1l15.3-15.3
	c0.3-0.3,0.2-0.5,0-0.7C255.1,66.8,245.6,62,235.3,58.8L235.3,58.8z M119.2,102.7c-8.3,13.6-13.2,30.1-14,45.7
	c0,0.3,0.2,0.6,0.5,0.6c0,0,0,0,0,0h41.8c0.3,0,0.6-0.2,0.6-0.6c0.5-12.9,2.5-25.6,6.1-38c0.1-0.4,0-0.6-0.4-0.7
	c-11.4-1.9-22.6-4.4-33.8-7.4C119.6,102.3,119.4,102.4,119.2,102.7z M164.2,111.9c-3.9,11.6-5.6,24.9-6.2,36.7
	c0,0.3,0.1,0.5,0.5,0.5h29.8c0.3,0,0.6-0.1,0.9-0.4l10.4-10.4c0.3-0.3,0.4-0.6,0.4-1v-22.8c0-0.4-0.2-0.6-0.6-0.6
	c-11.5-0.1-23-0.9-34.4-2.5C164.6,111.3,164.4,111.5,164.2,111.9z M209.9,127.2c0,0.2,0.1,0.3,0.3,0.3c0.1,0,0.2,0,0.2-0.1
	l13.3-13.4c0.1-0.1,0.1-0.3,0-0.4c-0.1-0.1-0.2-0.1-0.2-0.1l-13,0.4c-0.2,0-0.3,0.1-0.3,0.3L209.9,127.2L209.9,127.2z M105.2,159.3
	c0.9,19.1,7.7,38.3,19,53.5c0.2,0.2,0.5,0.2,0.7,0.1c0,0,0,0,0.1,0l25.9-25.9c0.3-0.3,0.5-0.8,0.4-1.2c-1.6-8.7-2.6-17.5-3.1-26.3
	c0-0.3-0.2-0.5-0.5-0.5h-42C105.3,159,105.2,159.1,105.2,159.3L105.2,159.3z M178.3,159.6c0.1-0.1,0.1-0.3,0-0.4
	c-0.1-0.1-0.1-0.1-0.2-0.1h-19.8c-0.2,0-0.3,0.1-0.3,0.3c0,0,0,0,0,0l1.8,18c0,0.2,0.2,0.3,0.4,0.3c0.1,0,0.1,0,0.2-0.1L178.3,159.6
	L178.3,159.6z"/>
<path class="st0" d="M80.2,234.2c-21.4-31.4-30-69.4-22.7-106.9C63.1,99.3,76,75,96.4,54.6c3.6-3.7,10-0.2,8.4,4.8
	c-0.3,0.9-1.1,2-2.3,3.3c-40,41.1-48.8,102-21.9,152.8c2.4,4.6,5.2,8.9,8.2,13.1c0.1,0.1,0.3,0.2,0.4,0.1c0.1-0.1,0.2-0.2,0.1-0.3
	c-0.8-8.8,10.5-9.1,10-1.4c-0.6,8.7-1.3,14.2-2.1,16.5c-0.8,2.4-2.8,3.4-6,2.9c-5.3-0.9-10.7-1.7-16.1-2.4c-5.3-0.7-6-8.2-0.8-9.7
	c1.8-0.5,3.8,0.1,5.7,0.4C80.3,234.7,80.4,234.6,80.2,234.2L80.2,234.2z"/>
<path class="st0" d="M319,78.4c0.8,6.7-9.8,8.1-9.9,0c0-4.8,0-9.6-0.1-14.4c0-4.3,3.5-5,7.2-5c3.7,0,14.5-1.1,16.8,1.9
	c2.4,3.2,0.5,7.2-3.3,8c-1,0.2-2.5,0-3.8,0.2c-0.5,0.1-0.5,0.3-0.3,0.6c42,55.5,36.6,134.7-12.6,183.2c-3.1,3.1-8.8-0.3-8-4.6
	c0.2-1.1,1-2.4,2.4-3.9c23.3-24.5,36.9-56.8,36.6-90.7c-0.2-27.3-8.3-52.5-24.3-75.6c-0.1-0.2-0.4-0.2-0.6-0.1
	C319.1,78.1,319,78.3,319,78.4L319,78.4z"/>
<path class="st0" d="M214.5,263.6c-29.4,2.1-55.5-5.8-78.3-23.8c-2.8-2.2-4.5-5.4-1.6-8.2c49.3-49.3,98.7-98.7,148-148
	c3.2-3.2,6.5-0.7,8.8,2.3c37.7,48.9,29.4,116.9-19,155.2c-3,2.4-5.5,4.6-7.5,6.8c-13.8,14.9-27.5,29.8-41.3,44.8
	c-2.2,2.4-6.5,1.6-7.9-1.1c-0.5-0.9-0.7-2.6-0.7-4.9c0.1-7.5,0-14.9,0-22.4C215,263.7,214.8,263.6,214.5,263.6L214.5,263.6z
	 M265.6,233.5c43.2-32.9,52.2-94.6,20.1-138.4c-0.2-0.3-0.4-0.3-0.7-0.1l-139,139c-0.2,0.2-0.2,0.5,0.1,0.7
	c17.6,12.8,37.2,19.1,59,19.2c4.5,0,9.6-0.5,14.5-0.9c4.1-0.3,5.5,2.7,5.4,6.4c-0.1,5.3-0.1,10.6,0.1,15.9c0,0.5,0.2,0.5,0.5,0.2
	c11.1-12,22.2-24,33.2-36C260.6,237.6,262.9,235.6,265.6,233.5z"/>
<circle class="st0" cx="205" cy="204" r="10"/>
<circle class="st0" cx="235" cy="204" r="10"/>
<ellipse transform="matrix(0.3163 -0.9487 0.9487 0.3163 -12.3396 390.8986)" class="st0" cx="265" cy="204" rx="10" ry="10"/>
</svg>
