<?xml version="1.0" encoding="utf-8"?>
<!-- Generator: Adobe Illustrator 28.1.0, SVG Export Plug-In . SVG Version: 6.00 Build 0)  -->
<svg version="1.1" id="Capa_1" xmlns="http://www.w3.org/2000/svg" xmlns:xlink="http://www.w3.org/1999/xlink" x="0px" y="0px"
	 viewBox="0 0 512 512" style="enable-background:new 0 0 512 512;" xml:space="preserve">
<style type="text/css">
	.st0{fill:#FFFFFF;}
</style>
<path class="st0" d="M251.6,0h9c81.9,3.5,143,77.5,128.3,159c-10.9,60.2-61.5,106-122.5,110.6c-92.3,7-164.1-79.1-141-168.6
	C140.2,43.2,191.4,2.8,251.6,0z"/>
<path class="st0" d="M467.7,512H44.2c-5.7-1.2-9.5-4-11.5-8.4c-1.2-2.6-1.7-6.9-1.5-12.9c3.7-104.9,88.4-189.9,194.1-190.5
	c17.2-0.1,34.3-0.2,51.5-0.2c9.1,0,15.7,0.1,20,0.3c101.9,6.1,182.2,90.3,184.2,192.9c0.1,4.5-0.4,8-1.5,10.3
	C477.3,508,473.4,510.9,467.7,512z"/>
</svg>
